<svg xmlns="http://www.w3.org/2000/svg" viewBox="0 0 960 540" role="img" aria-label="Service CVT motor">
  <defs>
    <linearGradient id="bg" x1="0" x2="1"><stop stop-color="#000"/><stop offset=".5" stop-color="#171717"/><stop offset="1" stop-color="#050505"/></linearGradient>
    <linearGradient id="m" x1="0" x2="1"><stop stop-color="#0066b1"/><stop offset=".52" stop-color="#1c69d4"/><stop offset="1" stop-color="#e22718"/></linearGradient>
  </defs>
  <rect width="960" height="540" fill="url(#bg)"/>
  <rect x="90" y="82" width="210" height="10" fill="url(#m)"/>
  <g fill="none" stroke="#fff" stroke-width="18" stroke-linecap="square" stroke-linejoin="round">
    <circle cx="254" cy="360" r="68"/>
    <circle cx="706" cy="360" r="68"/>
    <path d="M254 360h144l96-118h94l118 118M398 360l-68-130h118l46 12M506 360l-12-118M604 242l54-70h82M696 172l10 188"/>
    <path d="M332 286h230" stroke="url(#m)" stroke-width="16"/>
  </g>
  <g fill="none" stroke-linecap="square" stroke-linejoin="round">
    <ellipse cx="494" cy="292" rx="118" ry="54" stroke="#bbbbbb" stroke-width="14"/>
    <circle cx="398" cy="292" r="34" stroke="#fff" stroke-width="12"/>
    <circle cx="590" cy="292" r="34" stroke="#fff" stroke-width="12"/>
    <path d="M398 292h192" stroke="#e22718" stroke-width="10"/>
  </g>
  <text x="90" y="468" fill="#fff" font-family="Inter, Arial" font-size="38" font-weight="800" letter-spacing="3">SERVICE CVT</text>
</svg>
